<svg xmlns="http://www.w3.org/2000/svg" viewBox="0 0 200 100" fill="none">
  <defs>
    <linearGradient id="grad1" x1="0%" y1="0%" x2="100%" y2="0%">
      <stop offset="0%" style="stop-color:#005f9e;stop-opacity:1" />
      <stop offset="100%" style="stop-color:#00d2ff;stop-opacity:1" />
    </linearGradient>
  </defs>
  
  <!-- Infinity Shape Approximation -->
  <path d="M50 20 C 20 20 10 50 10 50 C 10 50 20 80 50 80 C 75 80 90 60 100 50 C 110 40 125 20 150 20 C 180 20 190 50 190 50 C 190 50 180 80 150 80 C 125 80 110 60 100 50 C 90 40 75 20 50 20 Z" 
        stroke="url(#grad1)" stroke-width="8" stroke-linecap="round" fill="none" />
        
  <!-- Inner Details -->
  <!-- The 'D' on the left -->
  <text x="50" y="62" font-family="Arial, sans-serif" font-weight="bold" font-size="40" fill="#005f9e" text-anchor="middle">D</text>
  
  <!-- The Flame/Drop on the right -->
  <path d="M150 35 Q 165 50 150 70 Q 135 50 150 35" fill="#00d2ff" />
  
</svg>
